<svg xmlns="http://www.w3.org/2000/svg" viewBox="0 0 518.36 111.48"><defs><style>.cls-1{fill:#ddd0c5;}</style></defs><g id="Layer_2" data-name="Layer 2"><g id="Layer_1-2" data-name="Layer 1"><path id="path1771" class="cls-1" d="M60.37,46.93a34.15,34.15,0,0,0-6.72-10,34.35,34.35,0,0,0-10-6.72A30.67,30.67,0,0,0,31.4,27.76a31.07,31.07,0,0,0-12.23,2.42,34.35,34.35,0,0,0-10,6.72,33,33,0,0,0-6.72,10A32.72,32.72,0,0,0,0,59.16V106l16.52,5.51V86.81c.89.44,1.77.88,2.65,1.21a30.8,30.8,0,0,0,24.45,0,30.36,30.36,0,0,0,10-6.72,32.28,32.28,0,0,0,6.72-9.92,31.06,31.06,0,0,0,2.42-12.22,30.69,30.69,0,0,0-2.42-12.23ZM31.4,74A14.88,14.88,0,1,1,46.27,59.16,15,15,0,0,1,31.4,74Z"/><path id="path1773" class="cls-1" d="M124.71,90.44A27.45,27.45,0,0,0,152.25,62.9V28.31H135.72V62.9a11,11,0,1,1-22,0V28.31H97.17V62.9a27.45,27.45,0,0,0,27.54,27.54Z"/><path id="path1775" class="cls-1" d="M253.63,59.05a32.06,32.06,0,0,0-9.26-22.26,30.58,30.58,0,0,0-9.91-6.72,31.5,31.5,0,0,0-12.23-2.42A30.72,30.72,0,0,0,210,30.07a14.15,14.15,0,0,0-2.64,1.33V0L190.83,5.51V59.05a31.07,31.07,0,0,0,2.43,12.22A30.31,30.31,0,0,0,200,81.19a29.23,29.23,0,0,0,10,6.72,30.81,30.81,0,0,0,12.23,2.53,31.41,31.41,0,0,0,22.14-9.25,30.31,30.31,0,0,0,6.72-9.92A31.59,31.59,0,0,0,253.63,59.05Zm-16.53,0a14.87,14.87,0,1,1-14.87-14.88A15,15,0,0,1,237.1,59.05Z"/><path id="path1777" class="cls-1" d="M290,89.67h16.64V.88L290,6.39Z"/><path id="path1779" class="cls-1" d="M347.48,89.67h16.63V26.11l-16.63,5.51Z"/><path id="path1781" class="cls-1" d="M427.23,90.33a20.16,20.16,0,0,0,0-40.32H422.6a2.84,2.84,0,0,1-2.86-2.86,2.87,2.87,0,0,1,2.86-3h23V26.88h-23a20.22,20.22,0,0,0,0,40.43h4.63a2.91,2.91,0,0,1,2.86,2.86A2.85,2.85,0,0,1,427.23,73H401.45V90.33Z"/><path id="path1783" class="cls-1" d="M518.36,43.73V28.31H500.84V8.59L484.32,14.1V56.84A33.73,33.73,0,0,0,487,70.06,34.65,34.65,0,0,0,505,88.24a34.31,34.31,0,0,0,13.33,2.64V74.36a17.5,17.5,0,0,1-17.52-17.52V43.73Z"/></g></g></svg>